<svg width="123" height="109" viewBox="0 0 123 109" fill="none" xmlns="http://www.w3.org/2000/svg">
<path d="M122.454 62.8884C122.454 56.5543 119.071 51.4396 114.475 50.3566C116.503 47.7563 117.613 44.4324 117.613 40.8925C117.613 31.5035 111.525 21.2631 101.328 13.4992C90.3838 5.16579 76.1967 0.57634 61.3809 0.57634C46.5651 0.57634 32.378 5.16579 21.4333 13.4992C11.2365 21.2631 5.14879 31.5035 5.14879 40.8925C5.14879 44.2304 6.31532 47.6186 8.46818 50.3156C3.77968 51.3052 0.307373 56.4712 0.307373 62.8884C0.307373 67.8724 0.313388 75.7285 6.48586 77.8745C6.79212 79.0066 7.25422 80.1029 7.97851 81.0799C7.85959 81.3906 7.72332 81.7265 7.72332 82.0791V93.5654C7.72332 102.062 14.7724 108.903 23.2687 108.903H99.4705C107.967 108.903 114.751 102.062 114.751 93.5654V82.0791C114.751 81.8886 114.795 81.7029 114.759 81.5231C115.519 80.509 116.07 79.2817 116.331 77.8657C122.417 75.75 122.454 68.1698 122.454 62.8884ZM24.8276 17.957C34.8025 10.362 47.784 6.1794 61.381 6.1794C74.978 6.1794 87.9593 10.362 97.9343 17.957C106.748 24.6679 112.01 33.1723 112.01 40.823C112.01 47.212 107.342 50.0024 102.716 50.0024H20.0266C15.4675 50.0024 10.7519 46.6124 10.7519 40.823C10.7519 33.1724 16.014 24.6679 24.8276 17.957ZM10.1128 55.5985H20.0266H102.716H112.649C115.054 55.5985 116.851 59.4431 116.851 62.8154C116.851 71.3907 115.677 72.6241 113.419 72.7762C112.092 72.6745 110.964 72.1598 109.854 71.2626C108.78 70.2712 107.665 68.953 106.621 67.7107C105.845 66.7867 105.041 65.834 104.191 64.9302C102.175 62.6613 99.8096 60.6709 96.5673 60.5186C96.4194 60.5097 96.2704 60.5057 96.1199 60.5057C91.8294 60.5057 88.807 63.9699 85.8843 67.3195C85.5928 67.6533 85.3004 67.9885 85.0071 68.3197C82.8508 70.6692 80.6612 72.8015 78.6334 72.8317C78.5013 72.8308 78.3698 72.8217 78.2387 72.8047C76.3013 72.5061 73.9646 69.8476 71.8889 67.4849C71.6601 67.2245 71.4308 66.9637 71.2004 66.7036C68.6512 63.6629 65.7318 60.5067 61.6496 60.5067C61.6239 60.5067 61.5987 60.5083 61.5731 60.5086C61.5488 60.5083 61.5248 60.5067 61.5003 60.5067C57.4035 60.5067 54.3327 63.8414 51.363 67.0663C48.8233 69.8238 46.1996 72.672 43.5171 72.8261C40.8688 72.7468 38.4347 70.0878 35.8609 67.2695C34.244 65.4992 32.5978 63.6971 30.7412 62.3986C29.2859 61.3307 27.6988 60.6067 25.8858 60.5335C25.6736 60.5174 25.4592 60.5067 25.2409 60.5067C20.5153 60.5067 17.4337 64.5043 14.9623 67.879C13.0518 70.3281 11.2351 72.6111 9.22269 72.8133C7.25576 72.6748 5.91015 71.5042 5.91015 62.8151C5.91043 59.4432 7.70751 55.5985 10.1128 55.5985ZM106.885 79.1026H15.5552C14.3218 79.1026 13.3377 78.6125 12.6774 77.845C15.3491 76.7564 17.3141 74.1137 19.228 71.4947C19.2953 71.4026 19.3627 71.3322 19.4302 71.2401C19.4464 71.2191 19.4632 71.2088 19.4794 71.1879C21.4971 68.6007 23.4042 66.1644 25.5345 66.1272C26.2423 66.2121 26.9877 66.597 27.7533 67.1627C28.8802 68.0712 30.1031 69.4549 31.3028 70.8139C34.4564 74.3864 38.0308 78.4362 43.2903 78.4362C43.3485 78.4362 43.4053 78.4334 43.4631 78.4324C43.5216 78.4334 43.5791 78.4368 43.6381 78.4368C48.8647 78.4368 52.4271 74.4457 55.57 70.9244C57.652 68.5921 59.8027 66.1865 61.5706 66.1167C63.0887 66.1787 65.0885 68.2596 66.9575 70.3645C67.1331 70.5745 67.3086 70.7851 67.4835 70.9955C70.203 74.2666 73.2626 77.9471 77.7464 78.3923C78.0231 78.4217 78.3042 78.4372 78.5899 78.4372C78.6011 78.4372 78.6119 78.4363 78.6232 78.4363C78.6347 78.4363 78.6457 78.4372 78.6573 78.4372C83.1189 78.4372 86.3542 75.2458 89.1711 72.0697C89.4997 71.7115 89.8232 71.3534 90.1422 71.0002C92.2104 68.7103 94.5545 66.1145 96.1676 66.1145C96.2284 66.1145 96.2885 66.1216 96.349 66.1258C97.4499 66.2568 98.7104 67.3003 99.975 68.6294C100.499 69.22 101.059 69.9 101.677 70.6648C102.973 72.2699 104.42 74.0544 106.186 75.5098C107.485 76.6804 108.896 77.5474 110.47 78.0224C109.787 78.9534 108.558 79.1026 106.885 79.1026ZM109.154 93.5653C109.154 98.9719 104.877 103.306 99.4705 103.306H23.2686C17.862 103.306 13.3194 98.9719 13.3194 93.5653V84.8387H15.5552H106.885H109.154V93.5653Z" fill="white"/>
</svg>
