<svg width="140" height="98" viewBox="0 0 140 98" fill="none" xmlns="http://www.w3.org/2000/svg">
<path d="M137.798 47.3645C133.941 12.5088 118.002 0.0878906 104.377 0.0878906C99.4707 0.0878906 96.107 2.10918 92.5273 4.25391C87.6052 7.20098 82.0505 10.5492 69.9845 10.5492C57.9185 10.5492 52.3793 7.20098 47.4572 4.25391C43.8929 2.10918 40.5293 0.0878906 35.6072 0.0878906C21.9828 0.0878906 6.04391 12.5088 2.18649 47.3645C-0.606283 72.6691 0.813248 87.4971 6.69196 94.0547C8.99098 96.616 11.9381 97.9121 15.4714 97.9121C24.5287 97.9121 29.6976 92.4963 35.6843 86.2164C37.7982 83.9945 39.9892 81.6955 42.5505 79.4119C49.2625 73.4252 56.0052 72.6074 62.2851 72.6074C63.4115 72.6074 64.507 72.6383 65.5562 72.6537C66.5591 72.6846 67.5466 72.7 68.4724 72.7H71.4966C72.4224 72.7 73.4099 72.6691 74.4128 72.6537C75.4621 72.6228 76.5576 72.6074 77.6839 72.6074C83.9792 72.6074 90.722 73.4252 97.4185 79.4119C99.9798 81.6955 102.171 83.9945 104.285 86.2164C110.271 92.4963 115.44 97.9121 124.498 97.9121C128.031 97.9121 130.978 96.616 133.277 94.0547C139.171 87.4971 140.591 72.6537 137.798 47.3645ZM54.4931 45.7289H42.8283V57.0697C42.8283 58.767 41.4396 60.1557 39.7423 60.1557C38.0451 60.1557 36.6564 58.767 36.6564 57.0697V45.7289H25.655C23.9578 45.7289 22.5691 44.3402 22.5691 42.643C22.5691 40.9303 23.9578 39.557 25.655 39.557H36.6564V28.2162C36.6564 26.5189 38.0451 25.1303 39.7423 25.1303C41.4396 25.1303 42.8283 26.5189 42.8283 28.2162V39.557H54.4931C56.1904 39.557 57.5791 40.9303 57.5791 42.643C57.5791 44.3557 56.2058 45.7289 54.4931 45.7289ZM88.0681 49.1543C84.8433 49.1543 82.2357 46.5467 82.2357 43.3064C82.2357 40.0816 84.8433 37.474 88.0681 37.474C91.2929 37.474 93.9005 40.0816 93.9005 43.3064C93.916 46.5467 91.2929 49.1543 88.0681 49.1543ZM99.8255 60.9117C96.6007 60.9117 93.9777 58.3041 93.9777 55.0639C93.9777 51.8391 96.5853 49.2314 99.8255 49.2314C103.05 49.2314 105.658 51.8391 105.658 55.0639C105.673 58.3041 103.05 60.9117 99.8255 60.9117ZM99.8255 37.3969C96.6007 37.3969 93.9777 34.7893 93.9777 31.5645C93.9777 28.3396 96.5853 25.7166 99.8255 25.7166C103.05 25.7166 105.658 28.3396 105.658 31.5645C105.673 34.7893 103.05 37.3969 99.8255 37.3969ZM111.583 49.1543C108.358 49.1543 105.735 46.5467 105.735 43.3064C105.735 40.0816 108.358 37.474 111.583 37.474C114.808 37.474 117.415 40.0816 117.415 43.3064C117.431 46.5467 114.808 49.1543 111.583 49.1543Z" fill="white"/>
</svg>
