<svg width="95" height="111" viewBox="0 0 95 111" fill="none" xmlns="http://www.w3.org/2000/svg">
<path d="M86.2916 70.1854C81.3042 63.2583 69.6666 44.4167 64.6791 36.3812L64.4021 36.1042L72.1604 18.6479C72.1604 18.6479 72.1604 18.3708 72.4375 18.0938C72.9916 15.8771 72.4375 13.3833 70.775 11.9979C69.3896 10.8896 67.7271 10.6125 66.0646 11.4438C65.5104 11.7208 63.5708 11.1667 62.1854 10.6125H61.9083V3.13125C61.9083 1.46875 60.8 0.360419 59.1375 0.360419C57.475 0.360419 56.3666 1.46875 56.3666 3.13125V9.78125C53.5958 9.50417 50.5479 10.3354 47.5 13.1063C44.7292 10.8896 41.9583 9.78125 39.7416 9.78125V2.85417C39.7416 1.19167 38.6333 0.083336 36.9708 0.0833359C35.3083 0.0833357 34.2 1.19167 34.2 2.85417V9.78125C33.0917 10.0583 32.2604 10.3354 31.4291 10.8896C30.3208 11.4438 28.9354 11.9979 28.3812 11.7208C26.1646 10.6125 22.8396 11.1667 20.6229 15.3229C20.3458 16.1542 20.0687 16.9854 20.6229 17.8167L28.6583 36.6583C28.3812 37.2125 28.3812 37.4896 28.1041 38.0438C26.9958 41.3688 25.6104 46.6333 20.0687 53.8375C19.7916 54.1146 -1.82085 79.0521 1.22707 105.652C1.22707 106.483 1.78123 107.038 2.3354 107.592C3.72082 108.7 7.04582 110.64 11.2021 110.64C13.4187 110.64 15.6354 110.085 17.8521 108.977C18.1292 108.7 18.4062 108.7 18.6833 108.977C20.3458 110.085 23.6708 110.64 25.6104 110.64C28.1042 110.64 30.0437 110.085 31.9833 108.7C32.2604 108.423 32.8146 108.423 33.0917 108.7C34.2 109.254 37.525 110.917 41.6812 110.917C43.8979 110.917 45.8375 110.363 47.5 109.531C47.7771 109.254 48.0541 109.254 48.0541 109.254C48.3312 109.531 51.6562 110.363 55.2583 110.363C58.0292 110.363 60.2458 109.808 61.9083 108.7C62.1854 108.423 62.4625 108.423 63.0167 108.7C64.125 108.977 67.7271 110.363 71.3291 110.363C73.8229 110.363 75.4854 109.808 76.8708 108.977C77.1479 108.7 77.425 108.7 77.7021 108.7C77.7021 108.7 81.0271 109.531 84.9062 109.531C88.2312 109.531 91.0021 108.977 93.2187 107.592C94.05 107.038 94.6041 106.206 94.6041 105.098C94.6041 99.8333 93.7729 80.7146 86.2916 70.1854ZM25.8875 16.7083C28.3812 17.8167 30.875 16.7083 33.0917 15.8771C36.6937 14.4917 40.0187 13.1063 45.5604 18.6479C46.1146 19.2021 46.9458 19.4792 47.7771 19.4792C48.6083 19.4792 49.4396 18.925 49.7166 18.3708C52.4875 14.2146 55.2583 14.7688 59.9687 16.1542C62.1854 16.9854 64.4021 17.5396 66.6187 16.9854L59.4146 33.3333H32.5375L25.8875 16.7083C25.8875 16.9854 25.6104 16.9854 25.8875 16.7083ZM84.9062 104.267C81.8583 104.267 79.0875 103.435 79.0875 103.435C77.1479 102.881 75.2083 103.158 73.5458 104.267C73.5458 104.267 72.9916 104.821 71.0521 104.821C68.8354 104.821 66.0646 104.267 64.6791 103.713C62.7396 102.881 60.5229 103.158 58.8604 104.267C58.0292 104.821 56.6437 105.098 55.2583 105.098C52.4875 105.098 49.9937 104.267 49.9937 104.267C48.3312 103.713 46.3917 103.713 44.7291 104.821C43.8979 105.375 42.7896 105.652 41.4042 105.652C38.6333 105.652 35.8625 104.267 35.5854 103.99C33.3687 102.604 30.5979 102.881 28.6583 104.267C27.8271 104.821 26.7187 105.098 25.3333 105.098C23.1167 105.098 20.9 104.267 20.9 103.99C18.9604 103.158 16.7437 103.158 15.0812 103.99C13.6958 104.821 12.3104 105.098 10.925 105.098C8.9854 105.098 7.59998 104.544 6.49165 103.713C4.55207 80.7146 23.9479 57.7167 23.9479 57.4396C23.9479 57.4396 24.225 57.1625 24.225 56.8854C30.3208 48.85 31.9833 43.0312 33.0917 39.4292C33.0917 39.1521 33.0917 39.1521 33.3687 38.875H59.9687L60.2458 39.1521C65.2333 47.1875 76.8708 66.0292 82.1354 73.2333C86.8458 79.8833 89.0625 93.4604 89.3396 103.435C87.9542 103.99 86.5687 104.267 84.9062 104.267Z" fill="white"/>
</svg>
