<svg width="110" height="102" viewBox="0 0 110 102" fill="none" xmlns="http://www.w3.org/2000/svg">
<path d="M70.905 50.8463C67.1656 50.8463 64.0294 50.8462 61.9788 50.4844C52.0875 48.675 51.9669 35.8887 51.9669 35.4062V0.304375H0.0981445V101.147H109.023V73.5237C109.023 51.0875 85.1388 50.9669 70.905 50.8463ZM102.991 94.995H6.12939V90.8937H102.991V94.995ZM102.991 84.8625H6.12939V6.215H45.9356V13.5731H30.7369V19.6044H45.9356V27.3244H30.7369V33.3556H45.9356V35.165C45.9356 36.4919 46.0563 38.06 46.4181 39.7487H30.7369V45.78H48.2275C50.3988 50.605 54.2588 55.0681 60.8931 56.2744C63.4263 56.7569 66.8038 56.7569 70.905 56.7569C88.5163 56.8775 102.991 58.2044 102.991 73.4031V84.8625Z" fill="white"/>
</svg>
