<?xml version="1.0" encoding="UTF-8" standalone="no"?>
<svg
   viewBox="0 0 1500.45 168.72"
   version="1.1"
   id="svg2"
   sodipodi:docname="Logo.svg"
   inkscape:version="1.3.2 (091e20e, 2023-11-25)"
   xmlns:inkscape="http://www.inkscape.org/namespaces/inkscape"
   xmlns:sodipodi="http://sodipodi.sourceforge.net/DTD/sodipodi-0.dtd"
   xmlns="http://www.w3.org/2000/svg"
   xmlns:svg="http://www.w3.org/2000/svg">
  <defs
     id="defs2">
    <inkscape:path-effect
       effect="spiro"
       id="path-effect4"
       is_visible="true"
       lpeversion="1" />
  </defs>
  <sodipodi:namedview
     id="namedview2"
     pagecolor="#ffffff"
     bordercolor="#000000"
     borderopacity="0.25"
     inkscape:showpageshadow="2"
     inkscape:pageopacity="0.0"
     inkscape:pagecheckerboard="0"
     inkscape:deskcolor="#d1d1d1"
     showguides="true"
     inkscape:zoom="1.0350138"
     inkscape:cx="611.58605"
     inkscape:cy="182.60626"
     inkscape:window-width="1280"
     inkscape:window-height="733"
     inkscape:window-x="0"
     inkscape:window-y="164"
     inkscape:window-maximized="0"
     inkscape:current-layer="svg2" />
  <path
     d="M 221.33,166.32 V 0.72 h 63.6 c 29.04,0 49.2,18.72 49.2,45.36 0,14.16 -6.96,27.12 -19.44,34.08 16.56,6.24 26.16,20.4 26.16,38.88 0,27.84 -19.68,47.28 -49.68,47.28 z m 27.6,-95.52 h 33.12 c 15.12,0 24.72,-9.12 24.72,-22.8 0,-13.68 -9.6,-23.04 -24.72,-23.04 h -33.12 z m 0,71.28 h 36.48 c 16.8,0 27.84,-9.36 27.84,-24 0,-14.64 -11.04,-24 -27.84,-24 H 248.93 Z M 352.45,106.8 c 0,-34.8 25.92,-61.92 60,-61.92 16.8,0 30.96,6.72 39.84,18.24 V 47.28 h 25.44 v 119.04 h -25.44 v -15.84 c -8.64,11.52 -23.04,18.24 -39.84,18.24 -34.08,0 -60,-27.12 -60,-61.92 z m 98.88,0 c 0,-21.36 -15.12,-36.96 -36,-36.96 -20.88,0 -36.24,15.6 -36.24,36.96 0,21.36 15.36,36.72 36.24,36.72 20.88,0 36,-15.36 36,-36.72 z m 135.31,59.52 V 0.72 h 26.64 v 165.6 z m 85.41,-0.03 V 0 h 33.23 L 763.37,109.65 821.21,0 H 853.7 V 166.29 H 826.38 V 46.99 L 773.46,147 H 752.29 L 699.37,46.99 v 119.29 h -27.32 z m 196.29,-59.52 c 0,-34.8 25.92,-61.92 60,-61.92 16.8,0 30.96,6.72 39.84,18.24 V 47.25 h 25.44 v 119.04 h -25.44 v -15.84 c -8.64,11.52 -23.04,18.24 -39.84,18.24 -34.08,0 -60,-27.12 -60,-61.92 z m 98.88,0 c 0,-21.36 -15.12,-36.96 -36,-36.96 -20.88,0 -36.24,15.6 -36.24,36.96 0,21.36 15.36,36.72 36.24,36.72 20.88,0 36,-15.36 36,-36.72 z m 44.72,59.52 V 47.25 h 25.44 v 16.56 c 6.72,-10.32 18,-16.56 34.8,-16.56 h 8.16 v 26.64 h -11.28 c -21.6,0 -30.48,11.76 -30.48,30.24 v 62.16 z m 83.52,0 V 0.68 h 26.64 v 99.37 l 46.56,-52.8 h 31.44 l -49.44,56.88 51.6,62.16 h -32.4 l -47.76,-56.64 v 56.64 z M 487.54952,106.60309 c 0,-34.800002 25.92,-61.920001 60,-61.920001 16.8,0 30.96,6.72 39.84,18.24 v -15.84 h 25.44001 V 166.12309 h -25.44001 v -15.84 c -8.64,11.52 -23.04,18.24 -39.84,18.24 -34.08,0 -60,-27.12 -60,-61.92 z m 98.88,0 c 0,-21.360002 -15.12,-36.960002 -36,-36.960002 -20.88,0 -36.24,15.6 -36.24,36.960002 0,21.36 15.36,36.72 36.24,36.72 20.88,0 36,-15.36 36,-36.72 z"
     id="path1"
     sodipodi:nodetypes="ccsscssccssscccsssccssccccccsssssssccccccccccccccccccccssccccccsssssssccccsccssccccccccccccccssccccccsssssss" />
  <path
     d="m 1195.98,106.77 c 0,-34.8 26.64,-61.92 60.48,-61.92 33.84,0 59.52,25.92 59.52,61.2 0,2.88 0,6 -0.48,8.88 h -93.12 c 3.12,19.44 16.56,30.48 35.28,30.48 14.4,0 25.44,-7.2 31.68,-18 l 22.08,12.48 c -12,18 -30.72,28.8 -53.76,28.8 -35.04,0 -61.68,-27.36 -61.68,-61.92 z m 27.12,-11.28 h 66 c -2.4,-16.08 -14.88,-27.6 -32.88,-27.6 -16.56,0 -29.28,10.32 -33.12,27.6 z m 159.11,70.8 c -27.12,0 -40.08,-11.76 -40.08,-36.48 V 71.73 h -19.68 V 47.25 h 13.68 c 3.6,0 6,-2.4 6,-6.72 V 17.48 h 26.64 v 29.76 h 31.68 v 24.48 h -31.68 v 55.44 c 0,9.36 4.56,14.16 15.36,14.16 h 16.32 v 24.96 h -18.24 z M 167.45,0.72 H 14.55 C 6.51,0.72 0,7.21 0,15.23 v 136.58 c 0,8.02 6.51,14.51 14.55,14.51 h 152.9 c 8.03,0 14.55,-6.5 14.55,-14.51 V 15.23 C 182,7.22 175.49,0.72 167.45,0.72 Z"
     id="path2"
     sodipodi:nodetypes="sssccsccssccsccscccssccccccssccccsssssssss" />
  <circle
     style="fill:#ffffff;fill-opacity:1"
     id="path3"
     cx="53.622471"
     cy="53.622471"
     r="13.043304" />
  <circle
     style="fill:#ffffff;fill-opacity:1"
     id="path3-2"
     cx="123.87823"
     cy="53.144791"
     r="13.043304" />
  <path
     style="fill:none;fill-opacity:1;stroke:#ffffff;stroke-width:11.5899;stroke-dasharray:none;stroke-opacity:1"
     d="m 42.511511,122.70368 c 0.04561,-2.28248 0.370862,-4.55924 0.96617,-6.7632 2.021964,-7.48574 7.2881,-14.0286 14.1545,-17.630977 6.866401,-3.602378 15.229249,-4.219261 22.559987,-1.692433 5.437082,1.874104 10.282688,5.42638 13.705848,10.04764 3.42316,4.62127 5.409211,10.29173 5.617566,16.03897"
     id="path4"
     inkscape:path-effect="#path-effect4"
     inkscape:original-d="m 42.511511,122.70368 c -0.322057,-0.96617 1.288227,-3.86468 0.96617,-6.7632 -0.322057,-2.89851 23.188097,-12.56022 36.714487,-19.32341 13.52639,-6.763195 13.52639,16.4249 19.323414,26.08661"
     transform="matrix(1.1186157,0,0,1,11.38237,2.8985121)"
     sodipodi:nodetypes="cssc" />
</svg>
