<svg width="1023" height="196" viewBox="0 0 1023 196" fill="none" xmlns="http://www.w3.org/2000/svg">
<path d="M95.4197 140.56C49.0511 140.56 11.3392 147.903 11.3392 156.929C11.3392 160.28 16.5156 163.505 26.1958 166.218C26.6784 166.381 27.1682 166.537 27.7458 166.69L89.1174 182.44C90.7843 182.8 93.0216 183 95.4197 183C97.7886 183 100.041 182.799 101.993 182.373L163.079 166.689C163.679 166.532 164.198 166.361 164.475 166.261C174.277 163.525 179.523 160.267 179.5 156.929C179.5 147.903 141.781 140.56 95.4197 140.56ZM95.4197 162.782C87.464 162.781 79.8345 162.165 74.2041 161.069C68.5737 159.973 65.4021 158.486 65.3847 156.935C65.5962 155.409 68.853 153.959 74.4619 152.895C80.0708 151.83 87.5889 151.234 95.4161 151.234C103.243 151.234 110.761 151.83 116.37 152.895C121.979 153.959 125.236 155.409 125.447 156.935C125.428 158.486 122.257 159.972 116.628 161.068C111 162.163 103.373 162.779 95.4197 162.78V162.782Z" fill="url(#paint0_linear_31_174)" fill-opacity="0.83"/>
<path d="M143.25 26C130.17 26 115.399 37.3224 104.393 48.2112C99.5152 53.0367 91.4848 53.0367 86.6073 48.2112C75.6013 37.3224 60.8297 26 47.75 26C17.5189 26 0 49.5178 0 79.4495C0 111.617 29.9558 145.616 89.8673 181.439C93.3335 183.511 97.6663 183.511 101.134 181.44C161.045 145.659 191 112.368 191 81.5663C191 51.6346 173.481 26 143.25 26Z" fill="#B87BBF"/>
<path d="M80.5753 64.5221C78.5488 62.4921 78.5567 59.2086 80.5929 57.1884L101.92 36.0275C103.956 34.0072 107.25 34.0151 109.276 36.0451C111.303 38.0751 111.295 41.3585 109.259 43.3788L87.9313 64.5396C85.8952 66.5599 82.6017 66.5521 80.5753 64.5221Z" fill="#F4DDF6"/>
<path d="M124.191 97.9604H108.868L118.478 86.6993L118.828 86.241C119.838 84.8229 120.242 83.0628 119.95 81.348C119.659 79.6331 118.696 78.1039 117.274 77.0968C115.851 76.0897 114.086 75.6871 112.366 75.9777C110.646 76.2683 109.112 77.2282 108.102 78.6463L94.3325 97.9604H67.2761C66.7012 97.8873 66.1175 97.9278 65.5582 98.0796C64.999 98.2315 64.4753 98.4916 64.0169 98.8453C63.0912 99.5594 62.4879 100.611 62.3399 101.769C62.1918 102.926 62.5111 104.095 63.2275 105.018C63.9438 105.941 64.9986 106.542 66.1597 106.69L69.4652 126.55C70.1744 130.111 72.0778 133.326 74.8626 135.666C77.6473 138.006 81.1476 139.332 84.7884 139.426H106.679C110.319 139.332 113.82 138.006 116.604 135.666C119.389 133.326 121.293 130.111 122.002 126.55L125.307 106.69C126.468 106.542 127.523 105.941 128.24 105.018C128.956 104.095 129.275 102.926 129.127 101.769C128.979 100.611 128.376 99.5594 127.45 98.8453C126.524 98.1311 125.352 97.8128 124.191 97.9604ZM86.3645 127.335C86.0828 127.687 85.7313 127.977 85.3321 128.187C84.9328 128.398 84.4944 128.524 84.0441 128.557H83.0371C82.1634 128.551 81.3209 128.232 80.6624 127.66C80.0038 127.087 79.5727 126.299 79.4471 125.437L78.2213 115.681C78.157 115.236 78.1855 114.782 78.305 114.348C78.4246 113.914 78.6326 113.509 78.9161 113.159C79.1996 112.809 79.5524 112.521 79.9527 112.313C80.3529 112.104 80.7918 111.981 81.2421 111.949H81.9645C82.8864 111.885 83.7986 112.171 84.5174 112.75C85.2363 113.329 85.7085 114.158 85.8391 115.07L87.1525 124.891C87.1932 125.33 87.1443 125.773 87.0089 126.193C86.8734 126.613 86.6542 127.002 86.3645 127.335ZM99.4986 125.153C99.4872 126.044 99.1253 126.896 98.4909 127.524C97.8564 128.153 97 128.508 96.1056 128.514H95.3614C94.4633 128.508 93.6036 128.15 92.9685 127.517C92.3334 126.883 91.9741 126.026 91.9684 125.131V115.419C91.9741 114.524 92.3334 113.667 92.9685 113.034C93.6036 112.401 94.4633 112.042 95.3614 112.037H96.1056C97.0037 112.042 97.8634 112.401 98.4985 113.034C99.1336 113.667 99.4929 114.524 99.4986 115.419V125.153ZM113.246 115.769L111.954 125.415C111.839 126.264 111.422 127.043 110.78 127.612C110.137 128.181 109.311 128.501 108.452 128.514H107.445C106.991 128.481 106.55 128.354 106.149 128.14C105.748 127.926 105.397 127.63 105.118 127.272C104.839 126.914 104.639 126.501 104.531 126.061C104.423 125.621 104.409 125.162 104.49 124.716L105.781 115.092C105.912 114.197 106.377 113.385 107.083 112.818C107.79 112.251 108.685 111.972 109.59 112.037H110.312C110.757 112.073 111.19 112.201 111.583 112.412C111.977 112.623 112.322 112.913 112.597 113.264C112.873 113.614 113.072 114.017 113.184 114.448C113.296 114.88 113.317 115.329 113.246 115.769Z" fill="white"/>
<mask id="path-2-outside-1_31_174" maskUnits="userSpaceOnUse" x="206" y="27" width="286" height="96" fill="black">
<rect fill="white" x="206" y="27" width="286" height="96"/>
<path d="M241.5 112.625C232.625 112.625 226.229 111.104 222.312 108.062C218.438 104.979 216.5 101.708 216.5 98.25C216.5 94.7917 217.708 91.8542 220.125 89.4375C222.583 86.9792 225.542 85.75 229 85.75C232.167 85.75 234.542 86.5833 236.125 88.25C237.708 89.9167 239.562 90.8125 241.688 90.9375C243.812 91.0208 245.042 90.5 245.375 89.375C245.708 88.2083 243.417 86.6875 238.5 84.8125C233.583 82.9375 228.896 80.5 224.438 77.5C219.979 74.5 217.75 69.5417 217.75 62.625C217.75 55.7083 220.188 49.8125 225.062 44.9375C229.938 40.0625 235.625 37.625 242.125 37.625C248.5 37.625 254.146 39.0625 259.062 41.9375C264.021 44.7708 266.5 47.9167 266.5 51.375C266.5 54.8333 265.271 57.7917 262.812 60.25C260.396 62.6667 257.458 63.875 254 63.875C250.833 63.875 248.667 63.1458 247.5 61.6875C246.333 60.2292 244.896 59.4583 243.188 59.375C241.479 59.25 240.458 59.7708 240.125 60.9375C239.792 62.0625 241.667 63.4583 245.75 65.125C249.833 66.7917 254.521 69.125 259.812 72.125C265.104 75.125 267.75 80.2917 267.75 87.625C267.75 94.5417 265.312 100.438 260.438 105.312C255.562 110.188 249.25 112.625 241.5 112.625ZM298.375 87V100.125C298.375 103.583 297.146 106.542 294.688 109C292.271 111.417 289.333 112.625 285.875 112.625C282.417 112.625 279.458 111.417 277 109C274.583 106.542 273.375 103.583 273.375 100.125V50.125C273.375 46.6667 274.583 43.7292 277 41.3125C279.458 38.8542 282.417 37.625 285.875 37.625C289.333 37.625 292.271 38.8542 294.688 41.3125C297.146 43.7292 298.375 46.6667 298.375 50.125V63.25H314V50.125C314 46.6667 315.208 43.7292 317.625 41.3125C320.083 38.8542 323.042 37.625 326.5 37.625C329.958 37.625 332.896 38.8542 335.312 41.3125C337.771 43.7292 339 46.6667 339 50.125V100.125C339 103.583 337.771 106.542 335.312 109C332.896 111.417 329.958 112.625 326.5 112.625C323.042 112.625 320.083 111.417 317.625 109C315.208 106.542 314 103.583 314 100.125V87H298.375ZM382.125 112.625C371.75 112.625 362.896 108.979 355.562 101.688C348.271 94.3542 344.625 85.5 344.625 75.125C344.625 64.75 348.271 55.9167 355.562 48.625C362.896 41.2917 371.75 37.625 382.125 37.625C392.5 37.625 401.333 41.2917 408.625 48.625C415.958 55.9167 419.625 64.75 419.625 75.125C419.625 85.5 415.958 94.3542 408.625 101.688C401.333 108.979 392.5 112.625 382.125 112.625ZM382.125 87.625C385.583 87.625 388.521 86.4167 390.938 84C393.396 81.5417 394.625 78.5833 394.625 75.125C394.625 71.6667 393.396 68.7292 390.938 66.3125C388.521 63.8542 385.583 62.625 382.125 62.625C378.667 62.625 375.708 63.8542 373.25 66.3125C370.833 68.7292 369.625 71.6667 369.625 75.125C369.625 78.5833 370.833 81.5417 373.25 84C375.708 86.4167 378.667 87.625 382.125 87.625ZM450.25 100.125C450.25 103.583 449.021 106.542 446.562 109C444.146 111.417 441.208 112.625 437.75 112.625C434.292 112.625 431.333 111.417 428.875 109C426.458 106.542 425.25 103.583 425.25 100.125V50.75C425.25 47.2917 426.458 44.3542 428.875 41.9375C431.333 39.4792 434.292 38.25 437.75 38.25H456.5C463.417 38.25 469.312 40.6875 474.188 45.5625C479.062 50.4375 481.5 56.3333 481.5 63.25C481.5 70.1667 479.062 76.0625 474.188 80.9375C469.312 85.8125 463.417 88.25 456.5 88.25H450.25V100.125ZM452.75 68.25C454.125 68.25 455.292 67.7708 456.25 66.8125C457.25 65.8125 457.75 64.625 457.75 63.25C457.75 61.875 457.25 60.7083 456.25 59.75C455.292 58.75 454.125 58.25 452.75 58.25H450.25V68.25H452.75Z"/>
</mask>
<path d="M241.5 112.625C232.625 112.625 226.229 111.104 222.312 108.062C218.438 104.979 216.5 101.708 216.5 98.25C216.5 94.7917 217.708 91.8542 220.125 89.4375C222.583 86.9792 225.542 85.75 229 85.75C232.167 85.75 234.542 86.5833 236.125 88.25C237.708 89.9167 239.562 90.8125 241.688 90.9375C243.812 91.0208 245.042 90.5 245.375 89.375C245.708 88.2083 243.417 86.6875 238.5 84.8125C233.583 82.9375 228.896 80.5 224.438 77.5C219.979 74.5 217.75 69.5417 217.75 62.625C217.75 55.7083 220.188 49.8125 225.062 44.9375C229.938 40.0625 235.625 37.625 242.125 37.625C248.5 37.625 254.146 39.0625 259.062 41.9375C264.021 44.7708 266.5 47.9167 266.5 51.375C266.5 54.8333 265.271 57.7917 262.812 60.25C260.396 62.6667 257.458 63.875 254 63.875C250.833 63.875 248.667 63.1458 247.5 61.6875C246.333 60.2292 244.896 59.4583 243.188 59.375C241.479 59.25 240.458 59.7708 240.125 60.9375C239.792 62.0625 241.667 63.4583 245.75 65.125C249.833 66.7917 254.521 69.125 259.812 72.125C265.104 75.125 267.75 80.2917 267.75 87.625C267.75 94.5417 265.312 100.438 260.438 105.312C255.562 110.188 249.25 112.625 241.5 112.625ZM298.375 87V100.125C298.375 103.583 297.146 106.542 294.688 109C292.271 111.417 289.333 112.625 285.875 112.625C282.417 112.625 279.458 111.417 277 109C274.583 106.542 273.375 103.583 273.375 100.125V50.125C273.375 46.6667 274.583 43.7292 277 41.3125C279.458 38.8542 282.417 37.625 285.875 37.625C289.333 37.625 292.271 38.8542 294.688 41.3125C297.146 43.7292 298.375 46.6667 298.375 50.125V63.25H314V50.125C314 46.6667 315.208 43.7292 317.625 41.3125C320.083 38.8542 323.042 37.625 326.5 37.625C329.958 37.625 332.896 38.8542 335.312 41.3125C337.771 43.7292 339 46.6667 339 50.125V100.125C339 103.583 337.771 106.542 335.312 109C332.896 111.417 329.958 112.625 326.5 112.625C323.042 112.625 320.083 111.417 317.625 109C315.208 106.542 314 103.583 314 100.125V87H298.375ZM382.125 112.625C371.75 112.625 362.896 108.979 355.562 101.688C348.271 94.3542 344.625 85.5 344.625 75.125C344.625 64.75 348.271 55.9167 355.562 48.625C362.896 41.2917 371.75 37.625 382.125 37.625C392.5 37.625 401.333 41.2917 408.625 48.625C415.958 55.9167 419.625 64.75 419.625 75.125C419.625 85.5 415.958 94.3542 408.625 101.688C401.333 108.979 392.5 112.625 382.125 112.625ZM382.125 87.625C385.583 87.625 388.521 86.4167 390.938 84C393.396 81.5417 394.625 78.5833 394.625 75.125C394.625 71.6667 393.396 68.7292 390.938 66.3125C388.521 63.8542 385.583 62.625 382.125 62.625C378.667 62.625 375.708 63.8542 373.25 66.3125C370.833 68.7292 369.625 71.6667 369.625 75.125C369.625 78.5833 370.833 81.5417 373.25 84C375.708 86.4167 378.667 87.625 382.125 87.625ZM450.25 100.125C450.25 103.583 449.021 106.542 446.562 109C444.146 111.417 441.208 112.625 437.75 112.625C434.292 112.625 431.333 111.417 428.875 109C426.458 106.542 425.25 103.583 425.25 100.125V50.75C425.25 47.2917 426.458 44.3542 428.875 41.9375C431.333 39.4792 434.292 38.25 437.75 38.25H456.5C463.417 38.25 469.312 40.6875 474.188 45.5625C479.062 50.4375 481.5 56.3333 481.5 63.25C481.5 70.1667 479.062 76.0625 474.188 80.9375C469.312 85.8125 463.417 88.25 456.5 88.25H450.25V100.125ZM452.75 68.25C454.125 68.25 455.292 67.7708 456.25 66.8125C457.25 65.8125 457.75 64.625 457.75 63.25C457.75 61.875 457.25 60.7083 456.25 59.75C455.292 58.75 454.125 58.25 452.75 58.25H450.25V68.25H452.75Z" fill="white"/>
<path d="M222.312 108.062L216.086 115.888L216.132 115.924L216.179 115.961L222.312 108.062ZM220.125 89.4375L213.054 82.3664L220.125 89.4375ZM241.688 90.9375L241.1 100.92L241.198 100.926L241.296 100.93L241.688 90.9375ZM245.375 89.375L254.963 92.2159L254.977 92.1691L254.99 92.1222L245.375 89.375ZM259.062 41.9375L254.015 50.57L254.058 50.5952L254.101 50.6199L259.062 41.9375ZM243.188 59.375L242.458 69.3483L242.579 69.3572L242.7 69.3631L243.188 59.375ZM240.125 60.9375L249.713 63.7784L249.727 63.7316L249.74 63.6847L240.125 60.9375ZM245.75 65.125L241.971 74.3835L245.75 65.125ZM241.5 102.625C233.293 102.625 229.685 101.127 228.446 100.164L216.179 115.961C222.773 121.081 231.957 122.625 241.5 122.625V102.625ZM228.539 100.237C227.28 99.2357 226.75 98.5258 226.557 98.2004C226.409 97.9502 226.5 98.011 226.5 98.25H206.5C206.5 105.907 210.903 111.763 216.086 115.888L228.539 100.237ZM226.5 98.25C226.5 97.4084 226.68 97.025 227.196 96.5086L213.054 82.3664C208.737 86.6834 206.5 92.1749 206.5 98.25H226.5ZM227.196 96.5086C227.79 95.9144 228.21 95.75 229 95.75V75.75C222.874 75.75 217.376 78.0439 213.054 82.3664L227.196 96.5086ZM229 95.75C229.734 95.75 229.956 95.8498 229.845 95.811C229.781 95.7884 229.637 95.73 229.449 95.6111C229.258 95.4903 229.059 95.3312 228.875 95.1375L243.375 81.3625C239.278 77.0498 233.843 75.75 229 75.75V95.75ZM228.875 95.1375C232.053 98.4831 236.229 100.634 241.1 100.92L242.275 80.9548C242.474 80.9665 242.762 81.0271 243.053 81.1677C243.332 81.3022 243.432 81.4224 243.375 81.3625L228.875 95.1375ZM241.296 100.93C243.053 100.999 245.565 100.893 248.105 99.8169C251.045 98.571 253.824 96.0595 254.963 92.2159L235.787 86.5341C236.136 85.3552 236.776 84.1991 237.705 83.2204C238.607 82.2701 239.565 81.7141 240.302 81.4019C241.612 80.8466 242.447 80.9596 242.079 80.9452L241.296 100.93ZM254.99 92.1222C256.205 87.8694 254.557 84.3868 253.215 82.5444C251.962 80.8249 250.437 79.692 249.436 79.0272C247.345 77.64 244.707 76.4771 242.063 75.4689L234.937 94.1561C235.999 94.5614 236.821 94.9099 237.434 95.1988C237.737 95.3415 237.966 95.4589 238.132 95.5496C238.214 95.5943 238.275 95.6295 238.317 95.6548C238.36 95.6802 238.378 95.6926 238.377 95.6915C238.375 95.6906 238.346 95.6713 238.295 95.6327C238.244 95.5946 238.161 95.5294 238.054 95.4359C237.862 95.2672 237.474 94.9031 237.051 94.3228C236.198 93.1522 234.711 90.2973 235.76 86.6278L254.99 92.1222ZM242.063 75.4689C237.872 73.8707 233.861 71.7878 230.02 69.2034L218.855 85.7966C223.931 89.2122 229.294 92.0043 234.937 94.1561L242.063 75.4689ZM230.02 69.2034C229.107 68.5887 227.75 67.2839 227.75 62.625H207.75C207.75 71.7994 210.852 80.4113 218.855 85.7966L230.02 69.2034ZM227.75 62.625C227.75 58.3508 229.141 55.0014 232.134 52.0086L217.991 37.8664C211.234 44.6236 207.75 53.0659 207.75 62.625H227.75ZM232.134 52.0086C235.259 48.8827 238.451 47.625 242.125 47.625V27.625C232.799 27.625 224.616 31.2423 217.991 37.8664L232.134 52.0086ZM242.125 47.625C246.942 47.625 250.806 48.6939 254.015 50.57L264.11 33.305C257.485 29.4311 250.058 27.625 242.125 27.625V47.625ZM254.101 50.6199C255.903 51.6493 256.604 52.3798 256.786 52.6116C256.854 52.6971 256.77 52.6135 256.673 52.3543C256.57 52.0789 256.5 51.7348 256.5 51.375H276.5C276.5 42.4183 269.978 36.6575 264.024 33.2551L254.101 50.6199ZM256.5 51.375C256.5 52.1654 256.336 52.5848 255.741 53.1789L269.884 67.3211C274.206 62.9985 276.5 57.5012 276.5 51.375H256.5ZM255.741 53.1789C255.225 53.6953 254.842 53.875 254 53.875V73.875C260.075 73.875 265.567 71.638 269.884 67.3211L255.741 53.1789ZM254 53.875C253.115 53.875 252.934 53.7644 253.19 53.8504C253.515 53.9598 254.45 54.3673 255.309 55.4405L239.691 67.9345C243.747 73.004 249.85 73.875 254 73.875V53.875ZM255.309 55.4405C252.536 51.9744 248.53 49.6237 243.675 49.3869L242.7 69.3631C242.146 69.3361 241.474 69.1787 240.821 68.8285C240.189 68.4896 239.83 68.1081 239.691 67.9345L255.309 55.4405ZM243.917 49.4017C242.08 49.2672 239.349 49.3599 236.596 50.7643C233.455 52.3666 231.388 55.115 230.51 58.1903L249.74 63.6847C249.195 65.5934 247.805 67.498 245.685 68.5795C243.954 69.4631 242.587 69.3578 242.458 69.3483L243.917 49.4017ZM230.537 58.0966C229.45 61.7645 230.498 64.9896 231.758 67.0494C232.891 68.9017 234.344 70.1308 235.31 70.8495C237.279 72.3151 239.708 73.4599 241.971 74.3835L249.529 55.8665C247.708 55.1234 247.159 54.737 247.253 54.8068C247.281 54.8275 248.073 55.3926 248.82 56.6147C249.694 58.0442 250.633 60.673 249.713 63.7784L230.537 58.0966ZM241.971 74.3835C245.542 75.841 249.833 77.9623 254.881 80.8242L264.744 63.4258C259.209 60.2877 254.125 57.7423 249.529 55.8665L241.971 74.3835ZM254.881 80.8242C256.346 81.655 257.75 83.0168 257.75 87.625H277.75C277.75 77.5666 273.862 68.595 264.744 63.4258L254.881 80.8242ZM257.75 87.625C257.75 91.8992 256.359 95.2486 253.366 98.2414L267.509 112.384C274.266 105.626 277.75 97.1841 277.75 87.625H257.75ZM253.366 98.2414C250.607 101.001 246.957 102.625 241.5 102.625V122.625C251.543 122.625 260.518 119.374 267.509 112.384L253.366 98.2414ZM298.375 87V77H288.375V87H298.375ZM277 109L269.869 116.01L269.929 116.071L269.99 116.131L277 109ZM277 41.3125L269.929 34.2414L277 41.3125ZM294.688 41.3125L287.556 48.3229L287.616 48.3838L287.677 48.4437L294.688 41.3125ZM298.375 63.25H288.375V73.25H298.375V63.25ZM314 63.25V73.25H324V63.25H314ZM317.625 41.3125L310.554 34.2414L317.625 41.3125ZM335.312 41.3125L328.181 48.3229L328.241 48.3838L328.302 48.4437L335.312 41.3125ZM317.625 109L310.494 116.01L310.554 116.071L310.615 116.131L317.625 109ZM314 87H324V77H314V87ZM288.375 87V100.125H308.375V87H288.375ZM288.375 100.125C288.375 100.915 288.211 101.335 287.616 101.929L301.759 116.071C306.081 111.749 308.375 106.251 308.375 100.125H288.375ZM287.616 101.929C287.1 102.445 286.717 102.625 285.875 102.625V122.625C291.95 122.625 297.442 120.388 301.759 116.071L287.616 101.929ZM285.875 102.625C285.03 102.625 284.592 102.44 284.01 101.869L269.99 116.131C274.325 120.393 279.804 122.625 285.875 122.625V102.625ZM284.131 101.99C283.56 101.408 283.375 100.97 283.375 100.125H263.375C263.375 106.196 265.607 111.675 269.869 116.01L284.131 101.99ZM283.375 100.125V50.125H263.375V100.125H283.375ZM283.375 50.125C283.375 49.2834 283.555 48.9 284.071 48.3836L269.929 34.2414C265.612 38.5584 263.375 44.0499 263.375 50.125H283.375ZM284.071 48.3836C284.665 47.7894 285.085 47.625 285.875 47.625V27.625C279.749 27.625 274.251 29.9189 269.929 34.2414L284.071 48.3836ZM285.875 47.625C286.661 47.625 287.026 47.7839 287.556 48.3229L301.819 34.3021C297.515 29.9244 292.005 27.625 285.875 27.625V47.625ZM287.677 48.4437C288.216 48.9736 288.375 49.3387 288.375 50.125H308.375C308.375 43.9946 306.076 38.4848 301.698 34.1813L287.677 48.4437ZM288.375 50.125V63.25H308.375V50.125H288.375ZM298.375 73.25H314V53.25H298.375V73.25ZM324 63.25V50.125H304V63.25H324ZM324 50.125C324 49.2834 324.18 48.9 324.696 48.3836L310.554 34.2414C306.237 38.5584 304 44.0499 304 50.125H324ZM324.696 48.3836C325.29 47.7894 325.71 47.625 326.5 47.625V27.625C320.374 27.625 314.876 29.9189 310.554 34.2414L324.696 48.3836ZM326.5 47.625C327.286 47.625 327.651 47.7839 328.181 48.3229L342.444 34.3021C338.14 29.9244 332.63 27.625 326.5 27.625V47.625ZM328.302 48.4437C328.841 48.9736 329 49.3387 329 50.125H349C349 43.9946 346.701 38.4848 342.323 34.1813L328.302 48.4437ZM329 50.125V100.125H349V50.125H329ZM329 100.125C329 100.915 328.836 101.335 328.241 101.929L342.384 116.071C346.706 111.749 349 106.251 349 100.125H329ZM328.241 101.929C327.725 102.445 327.342 102.625 326.5 102.625V122.625C332.575 122.625 338.067 120.388 342.384 116.071L328.241 101.929ZM326.5 102.625C325.655 102.625 325.217 102.44 324.635 101.869L310.615 116.131C314.95 120.393 320.429 122.625 326.5 122.625V102.625ZM324.756 101.99C324.185 101.408 324 100.97 324 100.125H304C304 106.196 306.232 111.675 310.494 116.01L324.756 101.99ZM324 100.125V87H304V100.125H324ZM314 77H298.375V97H314V77ZM355.562 101.688L348.471 108.738L348.491 108.759L348.512 108.779L355.562 101.688ZM355.562 48.625L348.491 41.5539L355.562 48.625ZM408.625 48.625L401.534 55.6759L401.554 55.6961L401.574 55.7162L408.625 48.625ZM390.938 84L383.866 76.9289L390.938 84ZM390.938 66.3125L383.806 73.3229L383.866 73.3838L383.927 73.4437L390.938 66.3125ZM373.25 66.3125L380.321 73.3836L373.25 66.3125ZM373.25 84L366.119 91.0104L366.179 91.0713L366.24 91.1312L373.25 84ZM382.125 102.625C374.383 102.625 368.066 100.018 362.613 94.5963L348.512 108.779C357.725 117.94 369.117 122.625 382.125 122.625V102.625ZM362.654 94.6366C357.232 89.1838 354.625 82.8673 354.625 75.125H334.625C334.625 88.1327 339.31 99.5245 348.471 108.738L362.654 94.6366ZM354.625 75.125C354.625 67.3839 357.23 61.0995 362.634 55.6961L348.491 41.5539C339.312 50.7338 334.625 62.1161 334.625 75.125H354.625ZM362.634 55.6961C368.091 50.2389 374.401 47.625 382.125 47.625V27.625C369.099 27.625 357.701 32.3444 348.491 41.5539L362.634 55.6961ZM382.125 47.625C389.848 47.625 396.126 50.2371 401.534 55.6759L415.716 41.5741C406.541 32.3462 395.152 27.625 382.125 27.625V47.625ZM401.574 55.7162C407.013 61.124 409.625 67.4023 409.625 75.125H429.625C429.625 62.0977 424.904 50.7093 415.676 41.5338L401.574 55.7162ZM409.625 75.125C409.625 82.849 407.011 89.1593 401.554 94.6164L415.696 108.759C424.906 99.549 429.625 88.151 429.625 75.125H409.625ZM401.554 94.6164C396.15 100.02 389.866 102.625 382.125 102.625V122.625C395.134 122.625 406.516 117.938 415.696 108.759L401.554 94.6164ZM382.125 97.625C388.2 97.625 393.692 95.388 398.009 91.0711L383.866 76.9289C383.35 77.4453 382.967 77.625 382.125 77.625V97.625ZM398.009 91.0711C402.331 86.7485 404.625 81.2512 404.625 75.125H384.625C384.625 75.9154 384.461 76.3348 383.866 76.9289L398.009 91.0711ZM404.625 75.125C404.625 68.9946 402.326 63.4848 397.948 59.1813L383.927 73.4437C384.466 73.9736 384.625 74.3387 384.625 75.125H404.625ZM398.069 59.3021C393.765 54.9244 388.255 52.625 382.125 52.625V72.625C382.911 72.625 383.276 72.7839 383.806 73.3229L398.069 59.3021ZM382.125 52.625C375.999 52.625 370.501 54.9189 366.179 59.2414L380.321 73.3836C380.915 72.7894 381.335 72.625 382.125 72.625V52.625ZM366.179 59.2414C361.862 63.5584 359.625 69.0499 359.625 75.125H379.625C379.625 74.2834 379.805 73.9 380.321 73.3836L366.179 59.2414ZM359.625 75.125C359.625 81.1964 361.857 86.6751 366.119 91.0104L380.381 76.9896C379.81 76.4082 379.625 75.9702 379.625 75.125H359.625ZM366.24 91.1312C370.575 95.393 376.054 97.625 382.125 97.625V77.625C381.28 77.625 380.842 77.4403 380.26 76.8688L366.24 91.1312ZM428.875 109L421.744 116.01L421.804 116.071L421.865 116.131L428.875 109ZM428.875 41.9375L421.804 34.8664L428.875 41.9375ZM450.25 88.25V78.25H440.25V88.25H450.25ZM456.25 59.75L449.03 66.6691L449.177 66.8227L449.331 66.9699L456.25 59.75ZM450.25 58.25V48.25H440.25V58.25H450.25ZM450.25 68.25H440.25V78.25H450.25V68.25ZM440.25 100.125C440.25 100.915 440.086 101.335 439.491 101.929L453.634 116.071C457.956 111.749 460.25 106.251 460.25 100.125H440.25ZM439.491 101.929C438.975 102.445 438.592 102.625 437.75 102.625V122.625C443.825 122.625 449.317 120.388 453.634 116.071L439.491 101.929ZM437.75 102.625C436.905 102.625 436.467 102.44 435.885 101.869L421.865 116.131C426.2 120.393 431.679 122.625 437.75 122.625V102.625ZM436.006 101.99C435.435 101.408 435.25 100.97 435.25 100.125H415.25C415.25 106.196 417.482 111.675 421.744 116.01L436.006 101.99ZM435.25 100.125V50.75H415.25V100.125H435.25ZM435.25 50.75C435.25 49.9084 435.43 49.525 435.946 49.0086L421.804 34.8664C417.487 39.1834 415.25 44.6749 415.25 50.75H435.25ZM435.946 49.0086C436.54 48.4144 436.96 48.25 437.75 48.25V28.25C431.624 28.25 426.126 30.5439 421.804 34.8664L435.946 49.0086ZM437.75 48.25H456.5V28.25H437.75V48.25ZM456.5 48.25C460.774 48.25 464.124 49.6408 467.116 52.6336L481.259 38.4914C474.501 31.7342 466.059 28.25 456.5 28.25V48.25ZM467.116 52.6336C470.109 55.6264 471.5 58.9758 471.5 63.25H491.5C491.5 53.6909 488.016 45.2486 481.259 38.4914L467.116 52.6336ZM471.5 63.25C471.5 67.5242 470.109 70.8736 467.116 73.8664L481.259 88.0086C488.016 81.2514 491.5 72.8091 491.5 63.25H471.5ZM467.116 73.8664C464.124 76.8592 460.774 78.25 456.5 78.25V98.25C466.059 98.25 474.501 94.7658 481.259 88.0086L467.116 73.8664ZM456.5 78.25H450.25V98.25H456.5V78.25ZM440.25 88.25V100.125H460.25V88.25H440.25ZM452.75 78.25C456.734 78.25 460.457 76.7477 463.321 73.8836L449.179 59.7414C449.565 59.3554 450.127 58.9401 450.857 58.6404C451.584 58.3419 452.253 58.25 452.75 58.25V78.25ZM463.321 73.8836C466.137 71.068 467.75 67.3606 467.75 63.25H447.75C447.75 62.6954 447.857 62.0068 448.159 61.2913C448.458 60.5813 448.854 60.0666 449.179 59.7414L463.321 73.8836ZM467.75 63.25C467.75 59.1265 466.121 55.3589 463.169 52.5301L449.331 66.9699C448.95 66.6047 448.509 66.0434 448.184 65.2829C447.857 64.5209 447.75 63.8029 447.75 63.25H467.75ZM463.47 52.8309C460.641 49.8792 456.873 48.25 452.75 48.25V68.25C452.197 68.25 451.479 68.143 450.717 67.8165C449.957 67.4905 449.395 67.0501 449.03 66.6691L463.47 52.8309ZM452.75 48.25H450.25V68.25H452.75V48.25ZM440.25 58.25V68.25H460.25V58.25H440.25ZM450.25 78.25H452.75V58.25H450.25V78.25Z" fill="#B87BBF" mask="url(#path-2-outside-1_31_174)"/>
<path d="M453.188 155.125L450.812 160.875C449.229 163.917 446.792 165.958 443.5 167C440.208 168.042 437.021 167.771 433.938 166.188C430.896 164.562 428.854 162.104 427.812 158.812C426.771 155.521 427.042 152.354 428.625 149.312L454 99.375C456.042 94.875 459.771 92.625 465.188 92.625C470.646 92.625 474.396 94.875 476.438 99.375L501.75 149.312C503.375 152.354 503.667 155.521 502.625 158.812C501.583 162.104 499.521 164.562 496.438 166.188C493.396 167.771 490.229 168.042 486.938 167C483.646 165.958 481.208 163.917 479.625 160.875L477.25 155.125H453.188ZM469.438 136.375L465.188 126.25L461 136.375H469.438ZM558 93.25C561.458 93.25 564.396 94.4792 566.812 96.9375C569.271 99.3542 570.5 102.292 570.5 105.75C570.5 109.208 569.271 112.167 566.812 114.625C564.396 117.042 561.458 118.25 558 118.25H551.75V155.125C551.75 158.583 550.521 161.542 548.062 164C545.646 166.417 542.708 167.625 539.25 167.625C535.792 167.625 532.833 166.417 530.375 164C527.958 161.542 526.75 158.583 526.75 155.125V118.25H520.5C517.042 118.25 514.083 117.042 511.625 114.625C509.208 112.167 508 109.208 508 105.75C508 102.292 509.208 99.3542 511.625 96.9375C514.083 94.4792 517.042 93.25 520.5 93.25H558ZM622.375 135.312V155.125C622.375 158.583 621.146 161.542 618.688 164C616.271 166.417 613.333 167.625 609.875 167.625C606.417 167.625 603.458 166.417 601 164C598.583 161.542 597.375 158.583 597.375 155.125V135.25L579.188 114C576.729 111.542 575.5 108.583 575.5 105.125C575.5 101.667 576.729 98.7292 579.188 96.3125C581.604 93.8542 584.542 92.625 588 92.625C591.458 92.625 594.417 93.8542 596.875 96.3125L609.875 112.438L622.938 96.3125C625.354 93.8542 628.292 92.625 631.75 92.625C635.208 92.625 638.146 93.8542 640.562 96.3125C643.021 98.7292 644.25 101.667 644.25 105.125C644.25 108.583 643.021 111.542 640.562 114L622.375 135.312ZM674.875 155.125C674.875 158.583 673.646 161.542 671.188 164C668.771 166.417 665.833 167.625 662.375 167.625C658.917 167.625 655.958 166.417 653.5 164C651.083 161.542 649.875 158.583 649.875 155.125V105.75C649.875 102.292 651.083 99.3542 653.5 96.9375C655.958 94.4792 658.917 93.25 662.375 93.25H681.125C688.042 93.25 693.938 95.6875 698.812 100.562C703.688 105.438 706.125 111.333 706.125 118.25C706.125 125.167 703.688 131.062 698.812 135.938C693.938 140.812 688.042 143.25 681.125 143.25H674.875V155.125ZM677.375 123.25C678.75 123.25 679.917 122.771 680.875 121.812C681.875 120.812 682.375 119.625 682.375 118.25C682.375 116.875 681.875 115.708 680.875 114.75C679.917 113.75 678.75 113.25 677.375 113.25H674.875V123.25H677.375ZM724.25 167.625C720.792 167.625 717.833 166.417 715.375 164C712.958 161.542 711.75 158.583 711.75 155.125V105.125C711.75 101.667 712.958 98.7292 715.375 96.3125C717.833 93.8542 720.792 92.625 724.25 92.625C727.708 92.625 730.646 93.8542 733.062 96.3125C735.521 98.7292 736.75 101.667 736.75 105.125V155.125C736.75 158.583 735.521 161.542 733.062 164C730.646 166.417 727.708 167.625 724.25 167.625ZM788.688 139C789.188 138.25 789.771 137.542 790.438 136.875C792.854 134.458 795.792 133.25 799.25 133.25C802.708 133.25 805.646 134.479 808.062 136.938C810.521 139.354 811.75 142.292 811.75 145.75C811.75 146.667 811.667 147.562 811.5 148.438C811.167 150.854 809.479 153.583 806.438 156.625C799.104 163.958 790.25 167.625 779.875 167.625C769.542 167.625 760.708 163.979 753.375 156.688C746.042 149.354 742.375 140.5 742.375 130.125C742.375 119.75 746.042 110.917 753.375 103.625C760.708 96.2917 769.542 92.625 779.875 92.625C790.25 92.625 799.104 96.2708 806.438 103.562C809.479 106.646 811.167 109.396 811.5 111.812C811.667 112.688 811.75 113.583 811.75 114.5C811.75 117.958 810.521 120.917 808.062 123.375C805.646 125.792 802.708 127 799.25 127C795.792 127 792.854 125.771 790.438 123.312C789.771 122.688 789.188 122 788.688 121.25C786.271 118.833 783.333 117.625 779.875 117.625C776.417 117.625 773.458 118.854 771 121.312C768.583 123.729 767.375 126.667 767.375 130.125C767.375 133.583 768.583 136.542 771 139C773.458 141.417 776.417 142.625 779.875 142.625C783.333 142.625 786.271 141.417 788.688 139ZM840.562 155.125L838.188 160.875C836.604 163.917 834.167 165.958 830.875 167C827.583 168.042 824.396 167.771 821.312 166.188C818.271 164.562 816.229 162.104 815.188 158.812C814.146 155.521 814.417 152.354 816 149.312L841.375 99.375C843.417 94.875 847.146 92.625 852.562 92.625C858.021 92.625 861.771 94.875 863.812 99.375L889.125 149.312C890.75 152.354 891.042 155.521 890 158.812C888.958 162.104 886.896 164.562 883.812 166.188C880.771 167.771 877.604 168.042 874.312 167C871.021 165.958 868.583 163.917 867 160.875L864.625 155.125H840.562ZM856.812 136.375L852.562 126.25L848.375 136.375H856.812ZM908.5 167C905.042 167 902.083 165.792 899.625 163.375C897.208 160.917 896 157.958 896 154.5V105.125C896 101.667 897.208 98.7292 899.625 96.3125C902.083 93.8542 905.042 92.625 908.5 92.625C911.958 92.625 914.896 93.8542 917.312 96.3125C919.771 98.7292 921 101.667 921 105.125V142H933.5C936.958 142 939.896 143.229 942.312 145.688C944.771 148.104 946 151.042 946 154.5C946 157.958 944.771 160.917 942.312 163.375C939.896 165.792 936.958 167 933.5 167H908.5Z" fill="#B87BBF"/>
<defs>
<linearGradient id="paint0_linear_31_174" x1="95.5" y1="26" x2="95.5" y2="183" gradientUnits="userSpaceOnUse">
<stop offset="1" stop-color="#CE9FD3"/>
</linearGradient>
</defs>
</svg>
