<svg width="130" height="130" viewBox="0 0 130 130" fill="none" xmlns="http://www.w3.org/2000/svg">
<path d="M61.2842 91.8504C59.975 91.681 58.6738 91.4551 57.3842 91.1733C57.0429 91.1029 56.6908 91.0433 56.3496 90.9675C54.9616 90.6372 53.5882 90.2486 52.2329 89.8029C48.295 88.4867 43.8588 89.4779 41.2642 92.5221C40.9392 92.9175 40.6467 93.3346 40.3433 93.7354C39.9642 94.2446 39.5633 94.7321 39.2167 95.2575C38.9079 95.7071 38.6533 96.1946 38.3717 96.6604C38.0575 97.1967 37.7217 97.7221 37.44 98.2746C37.1854 98.7621 36.985 99.2821 36.7629 99.7858C36.5083 100.349 36.2429 100.907 36.0263 101.492C35.8367 102.012 35.685 102.554 35.5279 103.085C35.3438 103.68 35.1488 104.265 34.9971 104.872C34.8671 105.419 34.7804 105.983 34.6883 106.535C34.5746 107.153 34.45 107.765 34.3796 108.398C34.32 108.967 34.3092 109.552 34.2767 110.126C34.2442 110.717 34.2008 111.302 34.2063 111.903C34.8183 128.808 100.582 128.808 101.189 111.903C101.194 111.307 101.156 110.711 101.124 110.126C101.097 109.552 101.086 108.967 101.015 108.398C100.945 107.765 100.826 107.153 100.712 106.535C100.62 105.983 100.533 105.419 100.403 104.872C100.257 104.265 100.062 103.68 99.8779 103.085C99.7154 102.554 99.5692 102.012 99.3742 101.492C99.1629 100.907 98.8975 100.355 98.6429 99.7858C98.4154 99.2821 98.2096 98.7675 97.9604 98.2746C97.6787 97.7221 97.3429 97.1912 97.0233 96.6604C96.7471 96.1946 96.4871 95.7071 96.1892 95.2575C95.8317 94.7321 95.4417 94.2446 95.0571 93.7354C94.7483 93.3292 94.4613 92.9175 94.1363 92.5221C91.5417 89.4779 87.1054 88.4867 83.1675 89.8029C81.8122 90.2485 80.4387 90.637 79.0508 90.9675C78.7042 91.0433 78.3575 91.1029 78.0217 91.1733C76.7302 91.4551 75.4272 91.681 74.1162 91.8504C73.6558 91.91 73.2008 91.9696 72.7404 92.0183C71.0673 92.2018 69.386 92.2995 67.7029 92.3108C65.9967 92.3108 64.3229 92.1862 62.6654 92.0183C62.1996 91.9696 61.7446 91.91 61.2842 91.8504ZM102.917 49.0046C102.917 67.0963 87.1487 81.77 67.7083 81.77C48.2625 81.77 32.5 67.1017 32.5 49.01C32.5 30.9183 48.2625 16.25 67.7083 16.25C87.1487 16.25 102.917 30.9129 102.917 49.01" fill="#B87BBF"/>
</svg>
