<svg class="svg-icon" style="width: 1em; height: 1em;vertical-align: middle;fill: currentColor;overflow: hidden;" viewBox="0 0 1024 1024" version="1.1" xmlns="http://www.w3.org/2000/svg"><path d="M341.333333 704m-64 0a64 64 0 1 0 128 0 64 64 0 1 0-128 0Z" fill="#0367FD" /><path d="M736 480h-213.333333v-128c0-23.530667 19.136-42.666667 42.666666-42.666667s42.666667 19.136 42.666667 42.666667c0 58.816 47.850667 106.666667 106.666667 106.666667s106.666667-47.850667 106.666666-106.666667V128a32 32 0 0 0-64 0v224c0 23.530667-19.136 42.666667-42.666666 42.666667s-42.666667-19.136-42.666667-42.666667c0-58.816-47.850667-106.666667-106.666667-106.666667s-106.666667 47.850667-106.666666 106.666667v128h-170.666667C164.288 480 64 580.288 64 704s100.288 224 224 224h448C859.712 928 960 827.712 960 704s-100.288-224-224-224zM341.333333 832a128 128 0 1 1 0-256 128 128 0 0 1 0 256z m362.666667-53.333333a32 32 0 1 1 0.021333-64.021334A32 32 0 0 1 704 778.666667z m64-85.333334a32 32 0 1 1 0.021333-64.021333A32 32 0 0 1 768 693.333333z" fill="#0367FD" /></svg>